<svg width="674" height="424" viewBox="0 0 674 424" fill="none" xmlns="http://www.w3.org/2000/svg">
<g filter="url(#filter0_d_49_5424)">
<g clip-path="url(#clip0_49_5424)">
<rect x="12" y="10" width="650" height="400" rx="12" fill="url(#paint0_linear_49_5424)"/>
<g opacity="0.8">
<path d="M30.8943 405.398C32.0167 398.482 27.3203 391.966 20.4048 390.844C13.4892 389.722 6.97316 394.418 5.8508 401.333C4.72845 408.249 9.42478 414.765 16.3404 415.887C23.2559 417.01 29.7719 412.313 30.8943 405.398Z" stroke="white" stroke-width="1.29" stroke-miterlimit="10"/>
<path opacity="0.9474" d="M37.0528 406.471C38.7572 396.155 31.7757 386.41 21.4591 384.705C11.1425 383.001 1.39754 389.982 -0.3069 400.299C-2.01134 410.616 4.97018 420.361 15.2868 422.065C25.6033 423.769 35.3483 416.788 37.0528 406.471Z" stroke="white" stroke-width="1.29" stroke-miterlimit="10"/>
<path opacity="0.8947" d="M43.1858 407.551C45.4941 393.839 36.2495 380.852 22.5375 378.544C8.82544 376.235 -4.16161 385.48 -6.4699 399.192C-8.77818 412.904 0.466402 425.891 14.1784 428.199C27.8905 430.508 40.8775 421.263 43.1858 407.551Z" stroke="white" stroke-width="1.29" stroke-miterlimit="10"/>
<path opacity="0.8421" d="M49.3259 408.702C52.266 391.598 40.7836 375.349 23.6792 372.408C6.57476 369.468 -9.67455 380.951 -12.6147 398.055C-15.5548 415.16 -4.07235 431.409 13.0321 434.349C30.1365 437.289 46.3858 425.807 49.3259 408.702Z" stroke="white" stroke-width="1.29" stroke-miterlimit="10"/>
<path opacity="0.7895" d="M44.9978 430.003C59.7088 415.292 59.7088 391.441 44.9978 376.73C30.2868 362.019 6.43553 362.019 -8.27548 376.73C-22.9865 391.441 -22.9865 415.292 -8.27547 430.003C6.43553 444.714 30.2868 444.714 44.9978 430.003Z" stroke="white" stroke-width="1.29" stroke-miterlimit="10"/>
<path opacity="0.7368" d="M49.4165 434.421C66.5676 417.27 66.5676 389.463 49.4165 372.312C32.2655 355.161 4.45817 355.161 -12.6929 372.312C-29.8439 389.463 -29.8439 417.27 -12.6929 434.421C4.45818 451.572 32.2655 451.572 49.4165 434.421Z" stroke="white" stroke-width="1.29" stroke-miterlimit="10"/>
<path opacity="0.6842" d="M53.8315 438.836C73.421 419.247 73.421 387.486 53.8315 367.896C34.2419 348.307 2.48097 348.307 -17.1086 367.896C-36.6981 387.486 -36.6981 419.247 -17.1086 438.836C2.48098 458.426 34.2419 458.426 53.8315 438.836Z" stroke="white" stroke-width="1.29" stroke-miterlimit="10"/>
<path opacity="0.6316" d="M58.2495 443.255C80.2791 421.225 80.2791 385.508 58.2495 363.478C36.2199 341.449 0.50288 341.449 -21.5267 363.478C-43.5563 385.508 -43.5563 421.225 -21.5267 443.255C0.502891 465.284 36.2199 465.284 58.2495 443.255Z" stroke="white" stroke-width="1.29" stroke-miterlimit="10"/>
<path opacity="0.5789" d="M62.6654 447.67C87.1335 423.202 87.1335 383.531 62.6654 359.063C38.1973 334.595 -1.47334 334.595 -25.9414 359.063C-50.4096 383.531 -50.4096 423.202 -25.9414 447.67C-1.47334 472.138 38.1973 472.138 62.6654 447.67Z" stroke="white" stroke-width="1.29" stroke-miterlimit="10"/>
<path opacity="0.5263" d="M67.0832 452.088C93.9913 425.18 93.9913 381.553 67.0832 354.645C40.175 327.737 -3.45167 327.737 -30.3598 354.645C-57.2679 381.553 -57.2679 425.18 -30.3598 452.088C-3.45166 478.996 40.175 478.996 67.0832 452.088Z" stroke="white" stroke-width="1.29" stroke-miterlimit="10"/>
<path opacity="0.4737" d="M18.3646 478.513C59.8674 478.513 93.5121 444.868 93.5121 403.365C93.5121 361.863 59.8674 328.218 18.3646 328.218C-23.1382 328.218 -56.783 361.863 -56.783 403.365C-56.783 444.868 -23.1382 478.513 18.3646 478.513Z" stroke="white" stroke-width="1.29" stroke-miterlimit="10"/>
<path opacity="0.4211" d="M18.3649 484.761C63.3185 484.761 99.7606 448.319 99.7606 403.365C99.7606 358.412 63.3185 321.97 18.3649 321.97C-26.5887 321.97 -63.0308 358.412 -63.0308 403.365C-63.0308 448.319 -26.5887 484.761 18.3649 484.761Z" stroke="white" stroke-width="1.29" stroke-miterlimit="10"/>
<path opacity="0.3684" d="M18.3651 491.005C66.7673 491.005 106.005 451.768 106.005 403.365C106.005 354.963 66.7673 315.725 18.3651 315.725C-30.0371 315.725 -69.2749 354.963 -69.2749 403.365C-69.2749 451.768 -30.0371 491.005 18.3651 491.005Z" stroke="white" stroke-width="1.29" stroke-miterlimit="10"/>
<path opacity="0.3158" d="M18.3644 497.254C70.2174 497.254 112.253 455.218 112.253 403.365C112.253 351.512 70.2174 309.477 18.3644 309.477C-33.4885 309.477 -75.5237 351.512 -75.5237 403.365C-75.5237 455.218 -33.4885 497.254 18.3644 497.254Z" stroke="white" stroke-width="1.29" stroke-miterlimit="10"/>
<path opacity="0.2632" d="M18.3646 503.498C73.6662 503.498 118.497 458.667 118.497 403.365C118.497 348.064 73.6662 303.233 18.3646 303.233C-36.937 303.233 -81.7678 348.064 -81.7678 403.365C-81.7678 458.667 -36.937 503.498 18.3646 503.498Z" stroke="white" stroke-width="1.29" stroke-miterlimit="10"/>
<path opacity="0.2105" d="M18.3649 509.746C77.1173 509.746 124.745 462.118 124.745 403.365C124.745 344.613 77.1173 296.985 18.3649 296.985C-40.3874 296.985 -88.0156 344.613 -88.0156 403.365C-88.0156 462.118 -40.3874 509.746 18.3649 509.746Z" stroke="white" stroke-width="1.29" stroke-miterlimit="10"/>
<path opacity="0.1579" d="M18.3641 515.99C80.5651 515.99 130.989 465.566 130.989 403.365C130.989 341.164 80.5651 290.741 18.3641 290.741C-43.8369 290.741 -94.2607 341.164 -94.2607 403.365C-94.2607 465.566 -43.8369 515.99 18.3641 515.99Z" stroke="white" stroke-width="1.29" stroke-miterlimit="10"/>
<path opacity="0.1053" d="M18.3644 522.238C84.0162 522.238 137.237 469.017 137.237 403.365C137.237 337.714 84.0162 284.492 18.3644 284.492C-47.2873 284.492 -100.509 337.714 -100.509 403.365C-100.509 469.017 -47.2873 522.238 18.3644 522.238Z" stroke="white" stroke-width="1.29" stroke-miterlimit="10"/>
<path opacity="0.0526" d="M18.3646 528.483C87.4649 528.483 143.482 472.466 143.482 403.365C143.482 334.265 87.4649 278.248 18.3646 278.248C-50.7358 278.248 -106.753 334.265 -106.753 403.365C-106.753 472.466 -50.7358 528.483 18.3646 528.483Z" stroke="white" stroke-width="1.29" stroke-miterlimit="10"/>
</g>
<path d="M542 129H691" stroke="#56FFFF" stroke-width="1.2333" stroke-miterlimit="10"/>
<path d="M536 129C536 127.341 537.346 126 539 126C540.654 126 542 127.346 542 129C542 130.659 540.654 132 539 132C537.346 132 536 130.654 536 129Z" stroke="#56FFFF" stroke-width="1.2333" stroke-miterlimit="10"/>
<path d="M98.4402 337.184H8.00047" stroke="#56FFFF" stroke-width="1.2333" stroke-miterlimit="10"/>
<path d="M102.812 337.184C102.812 335.976 101.832 335 100.628 335C99.4241 335 98.4438 335.98 98.4438 337.184C98.4438 338.392 99.4241 339.369 100.628 339.369C101.832 339.369 102.812 338.388 102.812 337.184Z" stroke="#56FFFF" stroke-width="1.2333" stroke-miterlimit="10"/>
<path d="M610.288 346.373V457.597" stroke="#56FFFF" stroke-width="1.2333" stroke-miterlimit="10"/>
<path d="M610.288 346.369C611.495 346.369 612.473 345.391 612.473 344.184C612.473 342.978 611.495 342 610.288 342C609.082 342 608.104 342.978 608.104 344.184C608.104 345.391 609.082 346.369 610.288 346.369Z" stroke="#56FFFF" stroke-width="1.2333" stroke-miterlimit="10"/>
<path d="M602.184 373.175V457.597" stroke="#56FFFF" stroke-width="1.2333" stroke-miterlimit="10"/>
<path d="M602.184 373.175C603.391 373.175 604.369 372.197 604.369 370.991C604.369 369.784 603.391 368.806 602.184 368.806C600.978 368.806 600 369.784 600 370.991C600 372.197 600.978 373.175 602.184 373.175Z" stroke="#56FFFF" stroke-width="1.2333" stroke-miterlimit="10"/>
<path d="M48.1848 87.2239V-24" stroke="#56FFFF" stroke-width="1.2333" stroke-miterlimit="10"/>
<path d="M48.1848 91.5926C49.3912 91.5926 50.3692 90.6146 50.3692 89.4082C50.3692 88.2019 49.3912 87.2239 48.1848 87.2239C46.9785 87.2239 46.0005 88.2019 46.0005 89.4082C46.0005 90.6146 46.9785 91.5926 48.1848 91.5926Z" stroke="#56FFFF" stroke-width="1.2333" stroke-miterlimit="10"/>
<path d="M56.2888 60.4175V-24" stroke="#56FFFF" stroke-width="1.2333" stroke-miterlimit="10"/>
<path d="M56.2888 64.79C57.4952 64.79 58.4732 63.8121 58.4732 62.6057C58.4732 61.3993 57.4952 60.4214 56.2888 60.4214C55.0825 60.4214 54.1045 61.3993 54.1045 62.6057C54.1045 63.8121 55.0825 64.79 56.2888 64.79Z" stroke="#56FFFF" stroke-width="1.2333" stroke-miterlimit="10"/>
<path d="M454.041 289.19H224.82V150.079C224.82 146.201 227.961 143.059 231.84 143.059H447.021C450.899 143.059 454.041 146.201 454.041 150.079V289.19Z" fill="url(#paint1_linear_49_5424)"/>
<path d="M447.357 283.587H231.509V153.884C231.509 151.002 233.847 148.663 236.73 148.663H442.135C445.018 148.663 447.357 151.002 447.357 153.884V283.587Z" fill="url(#paint2_linear_49_5424)"/>
<path d="M464.546 289.19H214.315V295.874H464.546V289.19Z" fill="url(#paint3_linear_49_5424)"/>
<path d="M464.546 295.874H214.315L218.063 299.861C219.336 301.216 221.115 301.987 222.976 301.987H455.89C457.75 301.987 459.529 301.219 460.803 299.861L464.546 295.874Z" fill="url(#paint4_linear_49_5424)"/>
<path d="M339.432 268.061C351.775 268.061 361.781 258.055 361.781 245.712C361.781 233.369 351.775 223.363 339.432 223.363C327.089 223.363 317.083 233.369 317.083 245.712C317.083 258.055 327.089 268.061 339.432 268.061Z" fill="url(#paint5_linear_49_5424)"/>
<path d="M339.433 266.15C350.721 266.15 359.871 257 359.871 245.712C359.871 234.424 350.721 225.273 339.433 225.273C328.145 225.273 318.994 234.424 318.994 245.712C318.994 257 328.145 266.15 339.433 266.15Z" fill="url(#paint6_linear_49_5424)"/>
<path d="M339.433 245.77C342.914 245.77 345.735 242.948 345.735 239.468C345.735 235.987 342.914 233.165 339.433 233.165C335.952 233.165 333.131 235.987 333.131 239.468C333.131 242.948 335.952 245.77 339.433 245.77Z" fill="white"/>
<path d="M349.181 258.258H329.684V256.07C329.684 250.686 334.049 246.322 339.433 246.322C344.816 246.322 349.181 250.686 349.181 256.07V258.258Z" fill="white"/>
<path d="M290.076 194.924H245.521C244.537 194.924 243.73 194.117 243.73 193.133C243.73 192.149 244.537 191.342 245.521 191.342H290.076C291.06 191.342 291.867 192.149 291.867 193.133C291.867 194.117 291.06 194.924 290.076 194.924Z" fill="#1B7CD4"/>
<path d="M258.345 202.229H245.524C244.54 202.229 243.734 201.423 243.734 200.439C243.734 199.455 244.54 198.648 245.524 198.648H258.345C259.329 198.648 260.135 199.455 260.135 200.439C260.135 201.423 259.329 202.229 258.345 202.229Z" fill="#1B7CD4"/>
<path d="M290.15 202.229H265.651C264.667 202.229 263.86 201.423 263.86 200.439C263.86 199.455 264.667 198.648 265.651 198.648H290.15C291.134 198.648 291.94 199.455 291.94 200.439C291.94 201.423 291.134 202.229 290.15 202.229Z" fill="#1B7CD4"/>
<path d="M290.075 209.678H259.56C258.576 209.678 257.77 208.871 257.77 207.887C257.77 206.903 258.576 206.096 259.56 206.096H290.075C291.06 206.096 291.866 206.903 291.866 207.887C291.866 208.871 291.06 209.678 290.075 209.678Z" fill="#1B7CD4"/>
<path d="M252.579 209.678H245.524C244.54 209.678 243.733 208.871 243.733 207.887C243.733 206.903 244.54 206.096 245.524 206.096H252.579C253.563 206.096 254.37 206.903 254.37 207.887C254.37 208.871 253.563 209.678 252.579 209.678Z" fill="#1B7CD4"/>
<path d="M277.324 213.402H290.145C291.129 213.402 291.935 214.209 291.935 215.193C291.935 216.177 291.129 216.983 290.145 216.983H277.324C276.34 216.983 275.533 216.177 275.533 215.193C275.533 214.209 276.34 213.402 277.324 213.402Z" fill="#1B7CD4"/>
<path d="M245.52 213.402H270.019C271.003 213.402 271.81 214.209 271.81 215.193C271.81 216.177 271.003 216.983 270.019 216.983H245.52C244.536 216.983 243.73 216.177 243.73 215.193C243.73 214.209 244.536 213.402 245.52 213.402Z" fill="#1B7CD4"/>
<path d="M388.784 194.924H433.339C434.323 194.924 435.13 194.117 435.13 193.133C435.13 192.149 434.323 191.342 433.339 191.342H388.784C387.8 191.342 386.993 192.149 386.993 193.133C386.993 194.117 387.8 194.924 388.784 194.924Z" fill="#1B7CD4"/>
<path d="M420.518 202.229H433.339C434.323 202.229 435.13 201.423 435.13 200.439C435.13 199.455 434.323 198.648 433.339 198.648H420.518C419.534 198.648 418.728 199.455 418.728 200.439C418.728 201.423 419.531 202.229 420.518 202.229Z" fill="#1B7CD4"/>
<path d="M388.715 202.229H413.213C414.197 202.229 415.004 201.423 415.004 200.439C415.004 199.455 414.197 198.648 413.213 198.648H388.715C387.731 198.648 386.924 199.455 386.924 200.439C386.924 201.423 387.727 202.229 388.715 202.229Z" fill="#1B7CD4"/>
<path d="M388.784 209.678H419.299C420.283 209.678 421.09 208.871 421.09 207.887C421.09 206.903 420.283 206.096 419.299 206.096H388.784C387.8 206.096 386.993 206.903 386.993 207.887C386.993 208.871 387.8 209.678 388.784 209.678Z" fill="#1B7CD4"/>
<path d="M426.284 209.678H433.339C434.323 209.678 435.13 208.871 435.13 207.887C435.13 206.903 434.323 206.096 433.339 206.096H426.284C425.3 206.096 424.494 206.903 424.494 207.887C424.494 208.871 425.3 209.678 426.284 209.678Z" fill="#1B7CD4"/>
<path d="M401.535 213.402H388.715C387.731 213.402 386.924 214.209 386.924 215.193C386.924 216.177 387.731 216.983 388.715 216.983H401.535C402.519 216.983 403.326 216.177 403.326 215.193C403.326 214.209 402.519 213.402 401.535 213.402Z" fill="#1B7CD4"/>
<path d="M433.339 213.402H408.84C407.856 213.402 407.05 214.209 407.05 215.193C407.05 216.177 407.856 216.983 408.84 216.983H433.339C434.323 216.983 435.13 216.177 435.13 215.193C435.13 214.209 434.323 213.402 433.339 213.402Z" fill="#1B7CD4"/>
<path d="M351.963 166.333C353.086 159.418 348.389 152.902 341.474 151.779C334.558 150.657 328.042 155.353 326.92 162.269C325.797 169.184 330.494 175.7 337.409 176.823C344.325 177.945 350.841 173.249 351.963 166.333Z" stroke="white" stroke-width="1.29" stroke-miterlimit="10"/>
<path opacity="0.9474" d="M358.122 167.407C359.826 157.09 352.845 147.345 342.528 145.641C332.211 143.936 322.466 150.918 320.762 161.234C319.058 171.551 326.039 181.296 336.356 183C346.672 184.705 356.417 177.723 358.122 167.407Z" stroke="white" stroke-width="1.29" stroke-miterlimit="10"/>
<path opacity="0.8947" d="M364.255 168.486C366.563 154.774 357.318 141.787 343.606 139.479C329.894 137.17 316.907 146.415 314.599 160.127C312.291 173.839 321.535 186.826 335.247 189.134C348.959 191.443 361.946 182.198 364.255 168.486Z" stroke="white" stroke-width="1.29" stroke-miterlimit="10"/>
<path opacity="0.8421" d="M370.395 169.637C373.335 152.533 361.852 136.284 344.748 133.344C327.644 130.403 311.394 141.886 308.454 158.99C305.514 176.095 316.996 192.344 334.101 195.284C351.205 198.224 367.455 186.742 370.395 169.637Z" stroke="white" stroke-width="1.29" stroke-miterlimit="10"/>
<path opacity="0.7895" d="M366.067 190.938C380.778 176.227 380.778 152.376 366.067 137.665C351.356 122.954 327.504 122.954 312.793 137.665C298.082 152.376 298.082 176.227 312.793 190.938C327.504 205.649 351.356 205.649 366.067 190.938Z" stroke="white" stroke-width="1.29" stroke-miterlimit="10"/>
<path opacity="0.7368" d="M370.485 195.356C387.636 178.205 387.636 150.398 370.485 133.247C353.334 116.096 325.527 116.096 308.376 133.247C291.225 150.398 291.225 178.205 308.376 195.356C325.527 212.507 353.334 212.507 370.485 195.356Z" stroke="white" stroke-width="1.29" stroke-miterlimit="10"/>
<path opacity="0.6842" d="M374.9 199.772C394.49 180.182 394.49 148.421 374.9 128.832C355.311 109.242 323.55 109.242 303.96 128.832C284.371 148.421 284.371 180.182 303.96 199.772C323.55 219.361 355.311 219.361 374.9 199.772Z" stroke="white" stroke-width="1.29" stroke-miterlimit="10"/>
<path opacity="0.6316" d="M379.318 204.19C401.348 182.16 401.348 146.443 379.318 124.414C357.289 102.384 321.572 102.384 299.542 124.414C277.513 146.443 277.513 182.16 299.542 204.19C321.572 226.219 357.289 226.219 379.318 204.19Z" stroke="white" stroke-width="1.29" stroke-miterlimit="10"/>
<path opacity="0.5789" d="M383.734 208.605C408.202 184.137 408.202 144.466 383.734 119.998C359.266 95.5301 319.596 95.5301 295.127 119.998C270.659 144.466 270.659 184.137 295.127 208.605C319.596 233.073 359.266 233.073 383.734 208.605Z" stroke="white" stroke-width="1.29" stroke-miterlimit="10"/>
<path opacity="0.5263" d="M388.152 213.023C415.06 186.115 415.06 142.488 388.152 115.58C361.244 88.672 317.617 88.672 290.709 115.58C263.801 142.488 263.801 186.115 290.709 213.023C317.617 239.931 361.244 239.931 388.152 213.023Z" stroke="white" stroke-width="1.29" stroke-miterlimit="10"/>
<path opacity="0.4737" d="M339.433 239.448C380.936 239.448 414.581 205.803 414.581 164.301C414.581 122.798 380.936 89.1531 339.433 89.1531C297.931 89.1531 264.286 122.798 264.286 164.301C264.286 205.803 297.931 239.448 339.433 239.448Z" stroke="white" stroke-width="1.29" stroke-miterlimit="10"/>
<path opacity="0.4211" d="M339.434 245.696C384.387 245.696 420.829 209.254 420.829 164.301C420.829 119.347 384.387 82.9049 339.434 82.9049C294.48 82.9049 258.038 119.347 258.038 164.301C258.038 209.254 294.48 245.696 339.434 245.696Z" stroke="white" stroke-width="1.29" stroke-miterlimit="10"/>
<path opacity="0.3684" d="M339.434 251.941C387.836 251.941 427.074 212.703 427.074 164.301C427.074 115.898 387.836 76.6606 339.434 76.6606C291.032 76.6606 251.794 115.898 251.794 164.301C251.794 212.703 291.032 251.941 339.434 251.941Z" stroke="white" stroke-width="1.29" stroke-miterlimit="10"/>
<path opacity="0.3158" d="M339.433 258.189C391.286 258.189 433.321 216.154 433.321 164.301C433.321 112.448 391.286 70.4125 339.433 70.4125C287.58 70.4125 245.545 112.448 245.545 164.301C245.545 216.154 287.58 258.189 339.433 258.189Z" stroke="white" stroke-width="1.29" stroke-miterlimit="10"/>
<path opacity="0.2632" d="M339.433 264.433C394.735 264.433 439.566 219.602 439.566 164.301C439.566 108.999 394.735 64.1682 339.433 64.1682C284.132 64.1682 239.301 108.999 239.301 164.301C239.301 219.602 284.132 264.433 339.433 264.433Z" stroke="white" stroke-width="1.29" stroke-miterlimit="10"/>
<path opacity="0.2105" d="M339.434 270.681C398.186 270.681 445.814 223.053 445.814 164.301C445.814 105.548 398.186 57.9201 339.434 57.9201C280.681 57.9201 233.053 105.548 233.053 164.301C233.053 223.053 280.681 270.681 339.434 270.681Z" stroke="white" stroke-width="1.29" stroke-miterlimit="10"/>
<path opacity="0.1579" d="M339.433 276.925C401.634 276.925 452.058 226.502 452.058 164.301C452.058 102.1 401.634 51.6758 339.433 51.6758C277.232 51.6758 226.808 102.1 226.808 164.301C226.808 226.502 277.232 276.925 339.433 276.925Z" stroke="white" stroke-width="1.29" stroke-miterlimit="10"/>
<path opacity="0.1053" d="M339.433 283.174C405.085 283.174 458.306 229.952 458.306 164.301C458.306 98.6489 405.085 45.4276 339.433 45.4276C273.782 45.4276 220.56 98.6489 220.56 164.301C220.56 229.952 273.782 283.174 339.433 283.174Z" stroke="white" stroke-width="1.29" stroke-miterlimit="10"/>
<path opacity="0.0526" d="M339.433 289.418C408.534 289.418 464.551 233.401 464.551 164.301C464.551 95.2003 408.534 39.1833 339.433 39.1833C270.333 39.1833 214.316 95.2003 214.316 164.301C214.316 233.401 270.333 289.418 339.433 289.418Z" stroke="white" stroke-width="1.29" stroke-miterlimit="10"/>
<path d="M390.461 134.619C354.685 129.629 339.434 105.501 339.434 105.501C339.434 105.501 324.182 129.629 288.406 134.619C288.406 134.619 274.818 198.683 339.434 216.154C404.049 198.679 390.461 134.619 390.461 134.619Z" fill="url(#paint7_linear_49_5424)"/>
<path d="M387.59 136.093C353.825 131.381 339.43 108.612 339.43 108.612C339.43 108.612 325.035 131.381 291.27 136.093C291.27 136.093 278.446 196.553 339.43 213.043C400.414 196.553 387.59 136.093 387.59 136.093Z" fill="url(#paint8_linear_49_5424)"/>
<path d="M383.83 138.023C352.705 133.681 339.433 112.687 339.433 112.687C339.433 112.687 326.161 133.677 295.036 138.023C295.036 138.023 283.215 193.758 339.433 208.96C395.651 193.762 383.83 138.023 383.83 138.023Z" fill="url(#paint9_linear_49_5424)"/>
<path d="M358.282 153.769H355.368V150.836C355.368 142.048 348.221 134.901 339.433 134.901C330.646 134.901 323.499 142.048 323.499 150.836V153.769H320.581C318.597 153.769 316.984 155.378 316.984 157.366V183.153C316.984 185.137 318.593 186.75 320.581 186.75H358.278C360.262 186.75 361.875 185.141 361.875 183.153V157.366C361.875 155.382 360.266 153.769 358.282 153.769ZM326.524 150.836C326.524 143.719 332.317 137.927 339.433 137.927C346.55 137.927 352.343 143.719 352.343 150.836V153.769H326.524V150.836ZM341.436 168.029V175.801C341.436 176.909 340.537 177.808 339.43 177.808C338.322 177.808 337.423 176.909 337.423 175.801V168.029C336.412 167.361 335.705 166.273 335.705 164.972C335.705 162.915 337.373 161.248 339.43 161.248C341.487 161.248 343.154 162.915 343.154 164.972C343.158 166.273 342.448 167.365 341.436 168.029Z" fill="url(#paint10_linear_49_5424)"/>
<path d="M430.534 118.7C413.148 116.272 405.739 104.548 405.739 104.548C405.739 104.548 398.325 116.272 380.943 118.7C380.943 118.7 374.34 149.832 405.739 158.319C437.138 149.832 430.534 118.7 430.534 118.7Z" fill="url(#paint11_linear_49_5424)" stroke="white" stroke-width="1.9592" stroke-miterlimit="10"/>
<path d="M412.898 129.772H411.79V128.657C411.79 125.318 409.077 122.605 405.739 122.605C402.401 122.605 399.688 125.318 399.688 128.657V129.772H398.58C397.828 129.772 397.214 130.382 397.214 131.138V140.933C397.214 141.685 397.824 142.299 398.58 142.299H412.898C413.65 142.299 414.264 141.689 414.264 140.933V131.138C414.264 130.385 413.65 129.772 412.898 129.772ZM400.838 128.66C400.838 125.959 403.038 123.759 405.739 123.759C408.44 123.759 410.64 125.959 410.64 128.66V129.776H400.834V128.66H400.838ZM406.499 135.186V138.139C406.499 138.559 406.16 138.899 405.739 138.899C405.318 138.899 404.979 138.559 404.979 138.139V135.186C404.597 134.932 404.327 134.519 404.327 134.025C404.327 133.245 404.959 132.608 405.743 132.608C406.522 132.608 407.159 133.241 407.159 134.025C407.151 134.523 406.885 134.936 406.499 135.186Z" fill="white"/>
<path d="M343.158 98.2842C350.338 98.2842 356.159 92.463 356.159 85.2823C356.159 78.1016 350.338 72.2805 343.158 72.2805C335.977 72.2805 330.156 78.1016 330.156 85.2823C330.156 92.463 335.977 98.2842 343.158 98.2842Z" fill="url(#paint12_linear_49_5424)" stroke="white" stroke-width="1.9592" stroke-miterlimit="10"/>
<path d="M345.296 85.3402C346.218 84.6725 346.824 83.5958 346.824 82.3724C346.824 80.3463 345.184 78.7061 343.158 78.7061C341.132 78.7061 339.492 80.3463 339.492 82.3724C339.492 83.5958 340.098 84.6725 341.02 85.3402C338.948 86.1853 337.485 88.2114 337.485 90.5888V91.8623H348.831V90.5888C348.831 88.2114 347.368 86.1853 345.296 85.3402Z" fill="white"/>
<path d="M290.076 241.15H245.521C244.537 241.15 243.73 240.344 243.73 239.359C243.73 238.375 244.537 237.569 245.521 237.569H290.076C291.06 237.569 291.867 238.375 291.867 239.359C291.867 240.344 291.06 241.15 290.076 241.15Z" fill="#126DC0"/>
<path d="M258.346 248.456H245.525C244.541 248.456 243.734 247.649 243.734 246.665C243.734 245.681 244.541 244.874 245.525 244.874H258.346C259.33 244.874 260.136 245.681 260.136 246.665C260.136 247.649 259.33 248.456 258.346 248.456Z" fill="#126DC0"/>
<path d="M290.15 248.456H265.652C264.668 248.456 263.861 247.649 263.861 246.665C263.861 245.681 264.668 244.874 265.652 244.874H290.15C291.134 244.874 291.941 245.681 291.941 246.665C291.941 247.649 291.134 248.456 290.15 248.456Z" fill="#126DC0"/>
<path d="M290.076 255.904H259.561C258.577 255.904 257.77 255.098 257.77 254.113C257.77 253.129 258.577 252.323 259.561 252.323H290.076C291.06 252.323 291.867 253.129 291.867 254.113C291.867 255.098 291.06 255.904 290.076 255.904Z" fill="#126DC0"/>
<path d="M252.58 255.904H245.525C244.541 255.904 243.734 255.098 243.734 254.113C243.734 253.129 244.541 252.323 245.525 252.323H252.58C253.564 252.323 254.37 253.129 254.37 254.113C254.37 255.098 253.564 255.904 252.58 255.904Z" fill="#126DC0"/>
<path d="M277.325 259.628H290.145C291.129 259.628 291.936 260.435 291.936 261.419C291.936 262.403 291.129 263.21 290.145 263.21H277.325C276.341 263.21 275.534 262.403 275.534 261.419C275.534 260.435 276.341 259.628 277.325 259.628Z" fill="#126DC0"/>
<path d="M245.521 259.628H270.019C271.003 259.628 271.81 260.435 271.81 261.419C271.81 262.403 271.003 263.21 270.019 263.21H245.521C244.537 263.21 243.73 262.403 243.73 261.419C243.73 260.435 244.537 259.628 245.521 259.628Z" fill="#126DC0"/>
<path d="M388.785 241.15H433.34C434.324 241.15 435.131 240.344 435.131 239.359C435.131 238.375 434.324 237.569 433.34 237.569H388.785C387.801 237.569 386.994 238.375 386.994 239.359C386.994 240.344 387.801 241.15 388.785 241.15Z" fill="#126DC0"/>
<path d="M420.519 248.456H433.339C434.324 248.456 435.13 247.649 435.13 246.665C435.13 245.681 434.324 244.874 433.339 244.874H420.519C419.535 244.874 418.728 245.681 418.728 246.665C418.728 247.649 419.531 248.456 420.519 248.456Z" fill="#126DC0"/>
<path d="M388.715 248.456H413.214C414.198 248.456 415.004 247.649 415.004 246.665C415.004 245.681 414.198 244.874 413.214 244.874H388.715C387.731 244.874 386.924 245.681 386.924 246.665C386.924 247.649 387.727 248.456 388.715 248.456Z" fill="#126DC0"/>
<path d="M388.785 255.904H419.3C420.284 255.904 421.091 255.098 421.091 254.113C421.091 253.129 420.284 252.323 419.3 252.323H388.785C387.801 252.323 386.994 253.129 386.994 254.113C386.994 255.098 387.801 255.904 388.785 255.904Z" fill="#126DC0"/>
<path d="M426.285 255.904H433.34C434.324 255.904 435.13 255.098 435.13 254.113C435.13 253.129 434.324 252.323 433.34 252.323H426.285C425.301 252.323 424.494 253.129 424.494 254.113C424.494 255.098 425.301 255.904 426.285 255.904Z" fill="#126DC0"/>
<path d="M401.535 259.628H388.715C387.731 259.628 386.924 260.435 386.924 261.419C386.924 262.403 387.731 263.21 388.715 263.21H401.535C402.52 263.21 403.326 262.403 403.326 261.419C403.326 260.435 402.52 259.628 401.535 259.628Z" fill="#126DC0"/>
<path d="M433.339 259.628H408.841C407.857 259.628 407.05 260.435 407.05 261.419C407.05 262.403 407.857 263.21 408.841 263.21H433.339C434.323 263.21 435.13 262.403 435.13 261.419C435.13 260.435 434.323 259.628 433.339 259.628Z" fill="#126DC0"/>
<path d="M326.647 361.879H224.427C218.793 361.879 214.223 357.31 214.223 351.676V296.187C214.223 290.553 218.793 285.983 224.427 285.983H326.647C332.282 285.983 336.851 290.553 336.851 296.187V351.676C336.855 357.31 332.286 361.879 326.647 361.879Z" fill="url(#paint13_linear_49_5424)" stroke="white" stroke-width="1.9592" stroke-miterlimit="10"/>
<path d="M303.507 300.185H256.274C255.749 300.185 255.321 299.757 255.321 299.232C255.321 298.707 255.749 298.279 256.274 298.279H303.507C304.032 298.279 304.461 298.707 304.461 299.232C304.461 299.757 304.032 300.185 303.507 300.185Z" fill="white"/>
<path d="M263.097 305.237H256.274C255.749 305.237 255.32 304.809 255.32 304.284C255.32 303.759 255.749 303.331 256.274 303.331H263.093C263.618 303.331 264.046 303.759 264.046 304.284C264.05 304.809 263.618 305.237 263.097 305.237Z" fill="white"/>
<path d="M303.546 305.237H266.979C266.455 305.237 266.026 304.809 266.026 304.284C266.026 303.759 266.455 303.331 266.979 303.331H303.546C304.071 303.331 304.499 303.759 304.499 304.284C304.499 304.809 304.071 305.237 303.546 305.237Z" fill="white"/>
<path d="M303.508 310.293H263.746C263.221 310.293 262.793 309.864 262.793 309.339C262.793 308.815 263.221 308.386 263.746 308.386H303.512C304.037 308.386 304.465 308.815 304.465 309.339C304.461 309.864 304.033 310.293 303.508 310.293Z" fill="white"/>
<path d="M260.029 310.293H256.274C255.749 310.293 255.32 309.864 255.32 309.339C255.32 308.815 255.749 308.386 256.274 308.386H260.029C260.553 308.386 260.982 308.815 260.982 309.339C260.982 309.864 260.553 310.293 260.029 310.293Z" fill="white"/>
<path d="M273.193 313.442H303.546C304.071 313.442 304.499 313.87 304.499 314.395C304.499 314.92 304.071 315.348 303.546 315.348H273.193C272.668 315.348 272.24 314.92 272.24 314.395C272.24 313.87 272.668 313.442 273.193 313.442Z" fill="white"/>
<path d="M256.274 313.442H269.306C269.831 313.442 270.26 313.87 270.26 314.395C270.26 314.92 269.831 315.348 269.306 315.348H256.274C255.749 315.348 255.32 314.92 255.32 314.395C255.324 313.87 255.753 313.442 256.274 313.442Z" fill="white"/>
<path d="M303.507 320.4H256.274C255.749 320.4 255.321 319.972 255.321 319.447C255.321 318.922 255.749 318.494 256.274 318.494H303.507C304.032 318.494 304.461 318.922 304.461 319.447C304.461 319.972 304.032 320.4 303.507 320.4Z" fill="white"/>
<path d="M246.769 322.303H227.515C226.99 322.303 226.562 321.874 226.562 321.349C226.562 320.825 226.99 320.396 227.515 320.396H246.769C247.293 320.396 247.722 320.825 247.722 321.349C247.722 321.874 247.293 322.303 246.769 322.303Z" fill="white"/>
<path d="M241.466 325.579H232.813C232.288 325.579 231.86 325.151 231.86 324.626C231.86 324.101 232.288 323.673 232.813 323.673H241.466C241.99 323.673 242.419 324.101 242.419 324.626C242.419 325.151 241.99 325.579 241.466 325.579Z" fill="white"/>
<path d="M263.097 325.452H256.274C255.749 325.452 255.32 325.023 255.32 324.499C255.32 323.974 255.749 323.545 256.274 323.545H263.093C263.618 323.545 264.046 323.974 264.046 324.499C264.05 325.023 263.618 325.452 263.097 325.452Z" fill="white"/>
<path d="M303.546 325.452H266.979C266.455 325.452 266.026 325.023 266.026 324.499C266.026 323.974 266.455 323.545 266.979 323.545H303.546C304.071 323.545 304.499 323.974 304.499 324.499C304.499 325.023 304.071 325.452 303.546 325.452Z" fill="white"/>
<path d="M303.508 330.507H263.746C263.221 330.507 262.793 330.079 262.793 329.554C262.793 329.029 263.221 328.601 263.746 328.601H303.512C304.037 328.601 304.465 329.029 304.465 329.554C304.461 330.079 304.033 330.507 303.508 330.507Z" fill="white"/>
<path d="M260.029 330.507H256.274C255.749 330.507 255.32 330.079 255.32 329.554C255.32 329.029 255.749 328.601 256.274 328.601H260.029C260.553 328.601 260.982 329.029 260.982 329.554C260.982 330.079 260.553 330.507 260.029 330.507Z" fill="white"/>
<path d="M273.193 333.657H303.546C304.071 333.657 304.499 334.085 304.499 334.61C304.499 335.135 304.071 335.563 303.546 335.563H273.193C272.668 335.563 272.24 335.135 272.24 334.61C272.24 334.085 272.668 333.657 273.193 333.657Z" fill="white"/>
<path d="M256.274 333.657H269.306C269.831 333.657 270.26 334.085 270.26 334.61C270.26 335.135 269.831 335.563 269.306 335.563H256.274C255.749 335.563 255.32 335.135 255.32 334.61C255.324 334.085 255.753 333.657 256.274 333.657Z" fill="white"/>
<path d="M327.963 322.519H315.992C314.078 322.519 312.522 320.967 312.522 319.049V301.748C312.522 299.834 314.074 298.279 315.992 298.279H327.963C329.878 298.279 331.433 299.83 331.433 301.748V319.049C331.433 320.963 329.881 322.519 327.963 322.519Z" stroke="white" stroke-width="1.9592" stroke-miterlimit="10"/>
<path d="M302.133 347.866H257.366C256.239 347.866 255.324 346.952 255.324 345.825V340.981C255.324 339.855 256.239 338.94 257.366 338.94H302.133C303.26 338.94 304.175 339.855 304.175 340.981V345.825C304.175 346.956 303.26 347.866 302.133 347.866Z" stroke="white" stroke-width="1.9592" stroke-miterlimit="10"/>
<path d="M320.561 330.547C321.079 328.357 319.722 326.162 317.532 325.644C315.341 325.127 313.146 326.483 312.629 328.674C312.112 330.864 313.468 333.059 315.659 333.577C317.849 334.094 320.044 332.737 320.561 330.547Z" stroke="white" stroke-width="1.801" stroke-miterlimit="10"/>
<path d="M330.236 332.462C331.827 330.87 331.827 328.29 330.236 326.698C328.644 325.107 326.064 325.107 324.472 326.698C322.881 328.29 322.881 330.87 324.472 332.462C326.064 334.053 328.644 334.053 330.236 332.462Z" stroke="white" stroke-width="1.801" stroke-miterlimit="10"/>
<path d="M319.474 345.897C321.066 344.306 321.066 341.725 319.474 340.134C317.883 338.542 315.303 338.542 313.711 340.134C312.12 341.725 312.12 344.306 313.711 345.897C315.303 347.489 317.883 347.489 319.474 345.897Z" stroke="white" stroke-width="1.801" stroke-miterlimit="10"/>
<path d="M331.317 343.983C331.835 341.793 330.478 339.598 328.288 339.081C326.097 338.564 323.902 339.92 323.385 342.11C322.868 344.301 324.224 346.496 326.415 347.013C328.605 347.53 330.8 346.174 331.317 343.983Z" stroke="white" stroke-width="1.801" stroke-miterlimit="10"/>
<path d="M237.14 318.852C243.31 318.852 248.312 313.85 248.312 307.68C248.312 301.51 243.31 296.507 237.14 296.507C230.969 296.507 225.967 301.51 225.967 307.68C225.967 313.85 230.969 318.852 237.14 318.852Z" fill="url(#paint14_linear_49_5424)"/>
<path d="M237.139 317.899C242.783 317.899 247.359 313.324 247.359 307.68C247.359 302.036 242.783 297.461 237.139 297.461C231.495 297.461 226.92 302.036 226.92 307.68C226.92 313.324 231.495 317.899 237.139 317.899Z" fill="url(#paint15_linear_49_5424)"/>
<path d="M237.139 307.711C238.881 307.711 240.292 306.299 240.292 304.558C240.292 302.816 238.881 301.405 237.139 301.405C235.398 301.405 233.986 302.816 233.986 304.558C233.986 306.299 235.398 307.711 237.139 307.711Z" fill="white"/>
<path d="M242.014 313.951H232.265V312.855C232.265 310.161 234.446 307.981 237.14 307.981C239.833 307.981 242.014 310.161 242.014 312.855V313.951Z" fill="white"/>
<path d="M245.909 255.912H143.689C138.054 255.912 133.485 251.342 133.485 245.708V208.701C133.485 203.067 138.054 198.498 143.689 198.498H245.909C251.544 198.498 256.113 203.067 256.113 208.701V245.708C256.117 251.342 251.547 255.912 245.909 255.912Z" fill="url(#paint16_linear_49_5424)" stroke="white" stroke-width="1.9592" stroke-miterlimit="10"/>
<path d="M222.774 220.985H175.541C175.016 220.985 174.588 220.557 174.588 220.032C174.588 219.507 175.016 219.079 175.541 219.079H222.774C223.299 219.079 223.728 219.507 223.728 220.032C223.728 220.557 223.295 220.985 222.774 220.985Z" fill="white"/>
<path d="M182.36 226.037H175.541C175.016 226.037 174.588 225.609 174.588 225.084C174.588 224.559 175.016 224.131 175.541 224.131H182.36C182.885 224.131 183.313 224.559 183.313 225.084C183.313 225.609 182.885 226.037 182.36 226.037Z" fill="white"/>
<path d="M222.813 226.037H186.246C185.722 226.037 185.293 225.609 185.293 225.084C185.293 224.559 185.722 224.131 186.246 224.131H222.813C223.338 224.131 223.766 224.559 223.766 225.084C223.762 225.609 223.334 226.037 222.813 226.037Z" fill="white"/>
<path d="M222.774 231.093H183.008C182.483 231.093 182.055 230.664 182.055 230.14C182.055 229.615 182.483 229.186 183.008 229.186H222.774C223.299 229.186 223.727 229.615 223.727 230.14C223.727 230.664 223.295 231.093 222.774 231.093Z" fill="white"/>
<path d="M179.291 231.093H175.536C175.011 231.093 174.583 230.664 174.583 230.14C174.583 229.615 175.011 229.186 175.536 229.186H179.291C179.816 229.186 180.244 229.615 180.244 230.14C180.244 230.664 179.816 231.093 179.291 231.093Z" fill="white"/>
<path d="M192.457 234.242H222.81C223.335 234.242 223.763 234.67 223.763 235.195C223.763 235.72 223.335 236.148 222.81 236.148H192.457C191.932 236.148 191.503 235.72 191.503 235.195C191.507 234.67 191.936 234.242 192.457 234.242Z" fill="white"/>
<path d="M175.541 234.242H188.574C189.098 234.242 189.527 234.67 189.527 235.195C189.527 235.72 189.098 236.148 188.574 236.148H175.541C175.016 236.148 174.588 235.72 174.588 235.195C174.588 234.67 175.016 234.242 175.541 234.242Z" fill="white"/>
<path d="M194.79 211.415H175.536C175.011 211.415 174.583 210.986 174.583 210.461C174.583 209.936 175.011 209.508 175.536 209.508H194.79C195.315 209.508 195.743 209.936 195.743 210.461C195.743 210.986 195.315 211.415 194.79 211.415Z" fill="white"/>
<path d="M184.189 214.687H175.536C175.011 214.687 174.583 214.259 174.583 213.734C174.583 213.209 175.011 212.781 175.536 212.781H184.189C184.714 212.781 185.142 213.209 185.142 213.734C185.142 214.259 184.714 214.687 184.189 214.687Z" fill="white"/>
<path d="M156.403 231.853C162.573 231.853 167.575 226.851 167.575 220.681C167.575 214.51 162.573 209.508 156.403 209.508C150.232 209.508 145.23 214.51 145.23 220.681C145.23 226.851 150.232 231.853 156.403 231.853Z" fill="url(#paint17_linear_49_5424)"/>
<path d="M156.402 230.9C162.046 230.9 166.622 226.325 166.622 220.681C166.622 215.037 162.046 210.461 156.402 210.461C150.758 210.461 146.183 215.037 146.183 220.681C146.183 226.325 150.758 230.9 156.402 230.9Z" fill="url(#paint18_linear_49_5424)"/>
<path d="M156.407 220.711C158.148 220.711 159.56 219.3 159.56 217.558C159.56 215.817 158.148 214.405 156.407 214.405C154.665 214.405 153.254 215.817 153.254 217.558C153.254 219.3 154.665 220.711 156.407 220.711Z" fill="white"/>
<path d="M161.281 226.956H151.533V225.86C151.533 223.166 153.713 220.985 156.407 220.985C159.101 220.985 161.281 223.17 161.281 225.86V226.956Z" fill="white"/>
<path d="M162.141 246.383H147.572C146.808 246.383 146.187 245.762 146.187 244.998V243.006C146.187 242.242 146.808 241.621 147.572 241.621H162.141C162.905 241.621 163.526 242.242 163.526 243.006V244.998C163.526 245.762 162.909 246.383 162.141 246.383Z" fill="white"/>
<path d="M183.934 246.383H169.365C168.601 246.383 167.979 245.762 167.979 244.998V243.006C167.979 242.242 168.601 241.621 169.365 241.621H183.934C184.698 241.621 185.319 242.242 185.319 243.006V244.998C185.319 245.762 184.698 246.383 183.934 246.383Z" fill="white"/>
<path d="M205.727 246.383H191.159C190.395 246.383 189.773 245.762 189.773 244.998V243.006C189.773 242.242 190.395 241.621 191.159 241.621H205.727C206.492 241.621 207.113 242.242 207.113 243.006V244.998C207.113 245.762 206.492 246.383 205.727 246.383Z" fill="white"/>
<path d="M227.516 246.383H212.948C212.184 246.383 211.562 245.762 211.562 244.998V243.006C211.562 242.242 212.184 241.621 212.948 241.621H227.516C228.281 241.621 228.902 242.242 228.902 243.006V244.998C228.906 245.762 228.284 246.383 227.516 246.383Z" fill="white"/>
<path d="M249.31 246.383H234.741C233.977 246.383 233.356 245.762 233.356 244.998V243.006C233.356 242.242 233.977 241.621 234.741 241.621H249.31C250.074 241.621 250.696 242.242 250.696 243.006V244.998C250.696 245.762 250.074 246.383 249.31 246.383Z" fill="white"/>
<path d="M246.119 235.385C250.342 233.125 251.933 227.87 249.673 223.648C247.414 219.425 242.159 217.834 237.936 220.093C233.713 222.353 232.122 227.608 234.382 231.83C236.641 236.053 241.896 237.644 246.119 235.385Z" stroke="white" stroke-width="2.1432" stroke-miterlimit="10"/>
<path d="M517.553 254.075H415.333C409.698 254.075 405.129 249.505 405.129 243.871V188.382C405.129 182.748 409.698 178.179 415.333 178.179H517.553C523.188 178.179 527.757 182.748 527.757 188.382V243.871C527.761 249.505 523.191 254.075 517.553 254.075Z" fill="url(#paint19_linear_49_5424)" stroke="white" stroke-width="1.9592" stroke-miterlimit="10"/>
<path d="M494.416 192.381H447.183C446.658 192.381 446.23 191.952 446.23 191.427C446.23 190.903 446.658 190.474 447.183 190.474H494.416C494.941 190.474 495.37 190.903 495.37 191.427C495.37 191.952 494.937 192.381 494.416 192.381Z" fill="white"/>
<path d="M454.003 197.432H447.183C446.659 197.432 446.23 197.004 446.23 196.479C446.23 195.954 446.659 195.526 447.183 195.526H454.003C454.528 195.526 454.956 195.954 454.956 196.479C454.956 197.004 454.528 197.432 454.003 197.432Z" fill="white"/>
<path d="M494.456 197.432H457.89C457.365 197.432 456.937 197.004 456.937 196.479C456.937 195.954 457.365 195.526 457.89 195.526H494.456C494.981 195.526 495.41 195.954 495.41 196.479C495.406 197.004 494.977 197.432 494.456 197.432Z" fill="white"/>
<path d="M494.416 202.488H454.65C454.125 202.488 453.697 202.06 453.697 201.535C453.697 201.01 454.125 200.582 454.65 200.582H494.416C494.941 200.582 495.369 201.01 495.369 201.535C495.369 202.06 494.937 202.488 494.416 202.488Z" fill="white"/>
<path d="M450.934 202.488H447.179C446.654 202.488 446.226 202.06 446.226 201.535C446.226 201.01 446.654 200.582 447.179 200.582H450.934C451.459 200.582 451.887 201.01 451.887 201.535C451.887 202.06 451.459 202.488 450.934 202.488Z" fill="white"/>
<path d="M437.674 214.502H418.42C417.895 214.502 417.467 214.074 417.467 213.549C417.467 213.024 417.895 212.595 418.42 212.595H437.674C438.199 212.595 438.627 213.024 438.627 213.549C438.627 214.074 438.199 214.502 437.674 214.502Z" fill="white"/>
<path d="M432.371 217.775H423.719C423.194 217.775 422.765 217.346 422.765 216.821C422.765 216.297 423.194 215.868 423.719 215.868H432.371C432.896 215.868 433.324 216.297 433.324 216.821C433.324 217.346 432.896 217.775 432.371 217.775Z" fill="white"/>
<path d="M494.416 222.703H454.65C454.125 222.703 453.697 222.274 453.697 221.75C453.697 221.225 454.125 220.796 454.65 220.796H494.416C494.941 220.796 495.369 221.225 495.369 221.75C495.369 222.274 494.937 222.703 494.416 222.703Z" fill="white"/>
<path d="M450.934 222.703H447.179C446.654 222.703 446.226 222.274 446.226 221.75C446.226 221.225 446.654 220.796 447.179 220.796H450.934C451.459 220.796 451.887 221.225 451.887 221.75C451.887 222.274 451.459 222.703 450.934 222.703Z" fill="white"/>
<path d="M464.099 225.852H494.452C494.977 225.852 495.405 226.28 495.405 226.805C495.405 227.33 494.977 227.759 494.452 227.759H464.099C463.574 227.759 463.146 227.33 463.146 226.805C463.15 226.28 463.578 225.852 464.099 225.852Z" fill="white"/>
<path d="M447.183 225.852H460.216C460.741 225.852 461.169 226.28 461.169 226.805C461.169 227.33 460.741 227.759 460.216 227.759H447.183C446.659 227.759 446.23 227.33 446.23 226.805C446.23 226.28 446.659 225.852 447.183 225.852Z" fill="white"/>
<path d="M518.869 214.714H506.897C504.983 214.714 503.428 213.163 503.428 211.245V193.944C503.428 192.029 504.979 190.474 506.897 190.474H518.869C520.783 190.474 522.338 192.026 522.338 193.944V211.245C522.338 213.159 520.787 214.714 518.869 214.714Z" stroke="white" stroke-width="1.9592" stroke-miterlimit="10"/>
<path d="M493.039 240.066H448.271C447.144 240.066 446.23 239.151 446.23 238.024V233.181C446.23 232.054 447.144 231.139 448.271 231.139H493.039C494.166 231.139 495.08 232.054 495.08 233.181V238.024C495.08 239.151 494.166 240.066 493.039 240.066Z" stroke="white" stroke-width="1.9592" stroke-miterlimit="10"/>
<path d="M493.039 215.513H448.271C447.144 215.513 446.23 214.598 446.23 213.472V208.628C446.23 207.501 447.144 206.587 448.271 206.587H493.039C494.166 206.587 495.08 207.501 495.08 208.628V213.472C495.08 214.598 494.166 215.513 493.039 215.513Z" stroke="white" stroke-width="1.9592" stroke-miterlimit="10"/>
<path d="M510.381 224.66C511.972 223.069 511.972 220.489 510.381 218.897C508.789 217.305 506.209 217.305 504.617 218.897C503.026 220.488 503.026 223.069 504.617 224.66C506.209 226.252 508.789 226.252 510.381 224.66Z" stroke="white" stroke-width="1.801" stroke-miterlimit="10"/>
<path d="M521.14 224.66C522.732 223.068 522.731 220.488 521.14 218.897C519.548 217.305 516.968 217.305 515.377 218.897C513.785 220.488 513.785 223.069 515.377 224.66C516.968 226.252 519.548 226.252 521.14 224.66Z" stroke="white" stroke-width="1.801" stroke-miterlimit="10"/>
<path d="M511.481 236.185C511.998 233.995 510.642 231.8 508.451 231.283C506.261 230.765 504.066 232.122 503.549 234.312C503.031 236.503 504.388 238.698 506.578 239.215C508.769 239.732 510.964 238.376 511.481 236.185Z" stroke="white" stroke-width="1.801" stroke-miterlimit="10"/>
<path d="M522.24 236.185C522.757 233.995 521.401 231.8 519.211 231.283C517.02 230.765 514.825 232.122 514.308 234.312C513.791 236.503 515.147 238.698 517.337 239.215C519.528 239.732 521.723 238.376 522.24 236.185Z" stroke="white" stroke-width="1.801" stroke-miterlimit="10"/>
<path d="M425.547 229.686C427.139 228.095 427.139 225.515 425.547 223.923C423.956 222.332 421.375 222.332 419.784 223.923C418.192 225.515 418.192 228.095 419.784 229.686C421.375 231.278 423.956 231.278 425.547 229.686Z" stroke="white" stroke-width="1.801" stroke-miterlimit="10"/>
<path d="M436.304 229.689C437.895 228.097 437.895 225.517 436.304 223.925C434.712 222.334 432.132 222.334 430.54 223.925C428.949 225.517 428.949 228.097 430.54 229.689C432.132 231.28 434.712 231.28 436.304 229.689Z" stroke="white" stroke-width="1.801" stroke-miterlimit="10"/>
<path d="M428.045 211.048C434.216 211.048 439.218 206.046 439.218 199.875C439.218 193.705 434.216 188.703 428.045 188.703C421.875 188.703 416.873 193.705 416.873 199.875C416.873 206.046 421.875 211.048 428.045 211.048Z" fill="url(#paint20_linear_49_5424)"/>
<path d="M428.045 210.095C433.689 210.095 438.264 205.519 438.264 199.875C438.264 194.231 433.689 189.656 428.045 189.656C422.401 189.656 417.825 194.231 417.825 199.875C417.825 205.519 422.401 210.095 428.045 210.095Z" fill="url(#paint21_linear_49_5424)"/>
<path d="M428.049 199.906C429.79 199.906 431.202 198.495 431.202 196.753C431.202 195.012 429.79 193.6 428.049 193.6C426.308 193.6 424.896 195.012 424.896 196.753C424.896 198.495 426.308 199.906 428.049 199.906Z" fill="white"/>
<path d="M432.919 206.147H423.171V205.051C423.171 202.357 425.351 200.176 428.045 200.176C430.739 200.176 432.919 202.357 432.919 205.051V206.147Z" fill="white"/>
<path d="M287.213 114.794C300.257 114.794 310.832 104.22 310.832 91.1754C310.832 78.1311 300.257 67.5567 287.213 67.5567C274.169 67.5567 263.594 78.1311 263.594 91.1754C263.594 104.22 274.169 114.794 287.213 114.794Z" fill="url(#paint22_linear_49_5424)" stroke="white" stroke-width="1.9592" stroke-miterlimit="10"/>
<path d="M296.742 78.5595H276.11V102.603H296.742V78.5595Z" stroke="white" stroke-width="1.9592" stroke-miterlimit="10"/>
<path d="M299.822 80.6589H279.19V104.702H299.822V80.6589Z" fill="white"/>
<path d="M281.46 85.6837H295.975" stroke="#3580C4" stroke-width="1.9592" stroke-miterlimit="10" stroke-linecap="round"/>
<path d="M281.46 89.5777H295.975" stroke="#3580C4" stroke-width="1.9592" stroke-miterlimit="10" stroke-linecap="round"/>
<path d="M281.46 93.4678H295.975" stroke="#3580C4" stroke-width="1.9592" stroke-miterlimit="10" stroke-linecap="round"/>
<path d="M281.46 97.3618H295.975" stroke="#3580C4" stroke-width="1.9592" stroke-miterlimit="10" stroke-linecap="round"/>
<path d="M474.159 95.2121H411.701C410.065 95.2121 408.737 93.8845 408.737 92.2482V63.8903C408.737 62.254 410.065 60.9264 411.701 60.9264H474.159C475.796 60.9264 477.123 62.254 477.123 63.8903V92.2482C477.123 93.8845 475.796 95.2121 474.159 95.2121Z" fill="url(#paint23_linear_49_5424)" stroke="white" stroke-width="1.9592" stroke-miterlimit="10"/>
<path d="M477.119 85.5176H408.737V91.1599H477.119V85.5176Z" fill="white"/>
<path d="M414.226 80.601C415.125 80.601 415.854 79.8718 415.854 78.9724C415.854 78.0729 415.125 77.3438 414.226 77.3438C413.326 77.3438 412.597 78.0729 412.597 78.9724C412.597 79.8718 413.326 80.601 414.226 80.601Z" fill="white"/>
<path d="M421.512 78.9724C421.512 79.8716 420.783 80.601 419.884 80.601C418.984 80.601 418.255 79.8716 418.255 78.9724C418.255 78.0732 418.984 77.3438 419.884 77.3438C420.783 77.3438 421.512 78.0732 421.512 78.9724Z" fill="white"/>
<path d="M427.17 78.9724C427.17 79.8716 426.44 80.601 425.541 80.601C424.642 80.601 423.912 79.8716 423.912 78.9724C423.912 78.0732 424.642 77.3438 425.541 77.3438C426.44 77.3438 427.17 78.0732 427.17 78.9724Z" fill="white"/>
<path d="M432.831 78.9724C432.831 79.8716 432.102 80.601 431.202 80.601C430.303 80.601 429.574 79.8716 429.574 78.9724C429.574 78.0732 430.303 77.3438 431.202 77.3438C432.102 77.3438 432.831 78.0732 432.831 78.9724Z" fill="white"/>
<path d="M442.262 78.9723C442.262 79.8715 441.533 80.6009 440.634 80.6009C439.734 80.6009 439.005 79.8715 439.005 78.9723C439.005 78.0731 439.734 77.3437 440.634 77.3437C441.533 77.3437 442.262 78.0731 442.262 78.9723Z" fill="white"/>
<path d="M446.291 80.601C447.191 80.601 447.92 79.8718 447.92 78.9724C447.92 78.0729 447.191 77.3438 446.291 77.3438C445.392 77.3438 444.663 78.0729 444.663 78.9724C444.663 79.8718 445.392 80.601 446.291 80.601Z" fill="white"/>
<path d="M451.949 80.601C452.848 80.601 453.578 79.8718 453.578 78.9724C453.578 78.0729 452.848 77.3438 451.949 77.3438C451.049 77.3438 450.32 78.0729 450.32 78.9724C450.32 79.8718 451.049 80.601 451.949 80.601Z" fill="white"/>
<path d="M457.606 80.601C458.506 80.601 459.235 79.8718 459.235 78.9724C459.235 78.0729 458.506 77.3438 457.606 77.3438C456.707 77.3438 455.978 78.0729 455.978 78.9724C455.978 79.8718 456.707 80.601 457.606 80.601Z" fill="white"/>
<path d="M430.585 68.0854H413.955C413.203 68.0854 412.593 67.4756 412.593 66.723C412.593 65.9705 413.203 65.3607 413.955 65.3607H430.585C431.337 65.3607 431.947 65.9705 431.947 66.723C431.947 67.4795 431.337 68.0854 430.585 68.0854Z" fill="white"/>
<path d="M453.748 68.0854H437.119C436.366 68.0854 435.756 67.4756 435.756 66.723C435.756 65.9705 436.366 65.3607 437.119 65.3607H453.748C454.501 65.3607 455.111 65.9705 455.111 66.723C455.107 67.4795 454.497 68.0854 453.748 68.0854Z" fill="white"/>
<path d="M471.748 69.9494H464.539C463.497 69.9494 462.652 69.1042 462.652 68.0622V65.3878C462.652 64.3458 463.497 63.5006 464.539 63.5006H471.748C472.79 63.5006 473.635 64.3458 473.635 65.3878V68.0622C473.635 69.1042 472.79 69.9494 471.748 69.9494Z" fill="white"/>
<path d="M304.765 154.772C291.451 152.071 282.497 142.608 282.497 142.608C282.497 142.608 273.544 152.071 260.229 154.772C260.229 154.772 256.308 178.155 282.497 187.213C308.686 178.155 304.765 154.772 304.765 154.772Z" fill="url(#paint24_linear_49_5424)" stroke="white" stroke-width="1.9592" stroke-miterlimit="10"/>
<path d="M291.779 163.081C291.836 162.734 291.875 162.379 291.875 162.012C291.875 158.535 289.058 155.718 285.581 155.718C282.906 155.718 280.629 157.389 279.714 159.743C279.055 159.272 278.252 158.994 277.38 158.994C275.153 158.994 273.351 160.8 273.351 163.023C273.351 163.035 273.351 163.046 273.351 163.058C270.896 163.34 268.993 165.424 268.993 167.952C268.993 170.672 271.201 172.88 273.922 172.88H291.065C293.785 172.88 295.993 170.672 295.993 167.952C295.997 165.474 294.164 163.425 291.779 163.081Z" fill="white"/>
<path d="M482.429 352.112H421.345C417.231 352.112 413.896 348.777 413.896 344.663V299.981C413.896 295.867 417.231 292.532 421.345 292.532H482.429C486.543 292.532 489.878 295.867 489.878 299.981V344.667C489.878 348.777 486.543 352.112 482.429 352.112Z" fill="url(#paint25_linear_49_5424)" stroke="white" stroke-width="1.9592" stroke-miterlimit="10"/>
<path d="M446.079 332.777H428.948V335.108H446.079V332.777Z" fill="white"/>
<path d="M446.079 327.945H428.948V330.276H446.079V327.945Z" fill="white"/>
<path d="M446.079 323.109H428.948V325.44H446.079V323.109Z" fill="white"/>
<path d="M446.079 318.278H428.948V320.609H446.079V318.278Z" fill="white"/>
<path d="M446.079 313.446H428.948V315.777H446.079V313.446Z" fill="white"/>
<path d="M446.079 308.614H428.948V310.945H446.079V308.614Z" fill="white"/>
<path d="M447.994 302.902H427.038C426.514 302.902 426.089 303.327 426.089 303.852V340.789C426.089 341.313 426.514 341.738 427.038 341.738H447.994C448.519 341.738 448.944 341.313 448.944 340.789V303.852C448.944 303.327 448.519 302.902 447.994 302.902ZM447.89 337.443H427.147V304.041H447.89V337.443Z" fill="white"/>
<path d="M474.827 332.777H457.696V335.108H474.827V332.777Z" fill="white"/>
<path d="M474.827 327.945H457.696V330.276H474.827V327.945Z" fill="white"/>
<path d="M474.827 323.109H457.696V325.44H474.827V323.109Z" fill="white"/>
<path d="M474.827 318.278H457.696V320.609H474.827V318.278Z" fill="white"/>
<path d="M474.827 313.446H457.696V315.777H474.827V313.446Z" fill="white"/>
<path d="M474.827 308.614H457.696V310.945H474.827V308.614Z" fill="white"/>
<path d="M476.737 302.902H455.782C455.257 302.902 454.832 303.327 454.832 303.852V340.789C454.832 341.313 455.257 341.738 455.782 341.738H476.737C477.262 341.738 477.687 341.313 477.687 340.789V303.852C477.687 303.327 477.262 302.902 476.737 302.902ZM476.633 337.443H455.89V304.041H476.633V337.443Z" fill="white"/>
<path d="M481.484 129.876V123.651L477.193 123.18C477.023 122.667 476.822 122.173 476.583 121.698L479.281 118.333L474.877 113.93L471.512 116.627C471.033 116.388 470.539 116.191 470.03 116.017L469.559 111.726H463.334L462.863 116.017C462.35 116.187 461.856 116.388 461.381 116.627L458.016 113.93L453.613 118.333L456.31 121.698C456.071 122.177 455.874 122.667 455.701 123.18L451.405 123.651V129.876L455.701 130.347C455.87 130.86 456.071 131.354 456.31 131.829L453.613 135.194L458.016 139.598L461.381 136.9C461.86 137.139 462.354 137.336 462.863 137.51L463.334 141.801H469.559L470.03 137.51C470.543 137.34 471.037 137.139 471.512 136.9L474.877 139.598L479.281 135.194L476.583 131.829C476.822 131.35 477.019 130.856 477.193 130.347L481.484 129.876Z" stroke="white" stroke-width="1.2544" stroke-miterlimit="10"/>
<path d="M466.445 133.566C470.201 133.566 473.245 130.521 473.245 126.766C473.245 123.01 470.201 119.965 466.445 119.965C462.69 119.965 459.645 123.01 459.645 126.766C459.645 130.521 462.69 133.566 466.445 133.566Z" stroke="white" stroke-width="1.2544" stroke-miterlimit="10"/>
<path d="M389.954 328.558V322.333L385.663 321.863C385.493 321.349 385.292 320.855 385.053 320.381L387.751 317.015L383.347 312.612L379.982 315.31C379.503 315.07 379.009 314.873 378.5 314.7L378.029 310.408H371.804L371.333 314.7C370.82 314.87 370.326 315.07 369.851 315.31L366.486 312.612L362.083 317.015L364.78 320.381C364.541 320.859 364.344 321.349 364.171 321.863L359.875 322.333V328.558L364.171 329.029C364.34 329.543 364.541 330.037 364.78 330.511L362.083 333.876L366.486 338.28L369.851 335.582C370.33 335.822 370.824 336.018 371.333 336.192L371.804 340.484H378.029L378.5 336.192C379.013 336.022 379.507 335.822 379.982 335.582L383.347 338.28L387.751 333.876L385.053 330.511C385.292 330.033 385.489 329.539 385.663 329.029L389.954 328.558Z" stroke="white" stroke-width="1.2544" stroke-miterlimit="10"/>
<path d="M374.911 332.244C378.666 332.244 381.711 329.2 381.711 325.444C381.711 321.689 378.666 318.644 374.911 318.644C371.155 318.644 368.111 321.689 368.111 325.444C368.111 329.2 371.155 332.244 374.911 332.244Z" stroke="white" stroke-width="1.2544" stroke-miterlimit="10"/>
<path d="M478.771 273.648V271.996L477.488 271.869C477.437 271.731 477.378 271.6 477.307 271.474L478.113 270.578L476.795 269.407L475.788 270.123C475.646 270.06 475.499 270.008 475.344 269.963L475.201 268.822H473.342L473.199 269.963C473.044 270.008 472.897 270.06 472.755 270.123L471.748 269.407L470.43 270.578L471.236 271.474C471.164 271.6 471.106 271.731 471.055 271.869L469.771 271.996V273.648L471.055 273.775C471.106 273.909 471.164 274.043 471.236 274.17L470.43 275.065L471.748 276.236L472.755 275.52C472.897 275.584 473.044 275.636 473.199 275.681L473.342 276.822H475.201L475.344 275.681C475.495 275.636 475.646 275.584 475.788 275.52L476.795 276.236L478.113 275.065L477.307 274.17C477.378 274.043 477.437 273.913 477.488 273.775L478.771 273.648ZM474.278 274.625C473.157 274.625 472.247 273.816 472.247 272.82C472.247 271.824 473.157 271.015 474.278 271.015C475.398 271.015 476.309 271.824 476.309 272.82C476.309 273.819 475.398 274.625 474.278 274.625Z" fill="white"/>
<path d="M203.771 281.648V279.996L202.488 279.869C202.437 279.731 202.378 279.6 202.307 279.474L203.113 278.578L201.795 277.407L200.788 278.123C200.646 278.06 200.499 278.008 200.344 277.963L200.201 276.822H198.342L198.199 277.963C198.044 278.008 197.897 278.06 197.755 278.123L196.748 277.407L195.43 278.578L196.236 279.474C196.164 279.6 196.106 279.731 196.055 279.869L194.771 279.996V281.648L196.055 281.775C196.106 281.913 196.164 282.043 196.236 282.17L195.43 283.065L196.748 284.236L197.755 283.52C197.897 283.584 198.044 283.636 198.199 283.681L198.342 284.822H200.201L200.344 283.681C200.495 283.636 200.646 283.584 200.788 283.52L201.795 284.236L203.113 283.065L202.307 282.17C202.378 282.043 202.437 281.913 202.488 281.775L203.771 281.648ZM199.278 282.625C198.158 282.625 197.247 281.816 197.247 280.82C197.247 279.824 198.158 279.015 199.278 279.015C200.398 279.015 201.309 279.824 201.309 280.82C201.309 281.816 200.398 282.625 199.278 282.625Z" fill="white"/>
<path d="M122.771 194.251V192.392L121.63 192.25C121.585 192.094 121.533 191.948 121.47 191.805L122.186 190.798L121.015 189.48L120.12 190.286C119.993 190.215 119.862 190.156 119.724 190.106L119.598 188.822H117.945L117.819 190.106C117.681 190.156 117.55 190.215 117.423 190.286L116.528 189.48L115.357 190.798L116.073 191.805C116.01 191.948 115.958 192.094 115.913 192.25L114.771 192.392V194.251L115.913 194.394C115.958 194.545 116.01 194.696 116.073 194.839L115.357 195.846L116.528 197.163L117.423 196.357C117.55 196.429 117.681 196.487 117.819 196.538L117.945 197.822H119.598L119.724 196.538C119.859 196.487 119.993 196.429 120.12 196.357L121.015 197.163L122.186 195.846L121.47 194.839C121.533 194.696 121.585 194.549 121.63 194.394L122.771 194.251ZM118.773 195.35C117.778 195.35 116.968 194.44 116.968 193.32C116.968 192.199 117.778 191.289 118.773 191.289C119.769 191.289 120.578 192.199 120.578 193.32C120.582 194.444 119.773 195.35 118.773 195.35Z" fill="white"/>
<path d="M183.771 59.6479V57.9956L182.63 57.8688C182.585 57.7308 182.533 57.6003 182.47 57.4735L183.186 56.5784L182.015 55.4073L181.12 56.1234C180.993 56.06 180.862 56.0078 180.724 55.963L180.598 54.8217H178.945L178.819 55.963C178.681 56.0078 178.55 56.06 178.423 56.1234L177.528 55.4073L176.357 56.5784L177.073 57.4735C177.01 57.6003 176.957 57.7308 176.913 57.8688L175.771 57.9956V59.6479L176.913 59.7747C176.957 59.9127 177.01 60.0432 177.073 60.17L176.357 61.0651L177.528 62.2362L178.423 61.5201C178.55 61.5835 178.681 61.6357 178.819 61.6805L178.945 62.8217H180.598L180.724 61.6805C180.859 61.6357 180.993 61.5835 181.12 61.5201L182.015 62.2362L183.186 61.0651L182.47 60.17C182.533 60.0432 182.585 59.9127 182.63 59.7747L183.771 59.6479ZM179.773 60.625C178.778 60.625 177.968 59.8157 177.968 58.8199C177.968 57.8241 178.778 57.0148 179.773 57.0148C180.769 57.0148 181.578 57.8241 181.578 58.8199C181.582 59.8194 180.773 60.625 179.773 60.625Z" fill="white"/>
<path d="M266.771 124.648V122.996L265.63 122.869C265.585 122.731 265.533 122.6 265.47 122.473L266.186 121.578L265.015 120.407L264.12 121.123C263.993 121.06 263.862 121.008 263.724 120.963L263.598 119.822H261.945L261.819 120.963C261.681 121.008 261.55 121.06 261.423 121.123L260.528 120.407L259.357 121.578L260.073 122.473C260.01 122.6 259.957 122.731 259.913 122.869L258.771 122.996V124.648L259.913 124.775C259.957 124.913 260.01 125.043 260.073 125.17L259.357 126.065L260.528 127.236L261.423 126.52C261.55 126.584 261.681 126.636 261.819 126.68L261.945 127.822H263.601L263.728 126.68C263.862 126.636 263.997 126.584 264.123 126.52L265.019 127.236L266.19 126.065L265.474 125.17C265.537 125.043 265.589 124.913 265.634 124.775L266.771 124.648ZM262.777 125.625C261.781 125.625 260.972 124.816 260.972 123.82C260.972 122.824 261.781 122.015 262.777 122.015C263.773 122.015 264.582 122.824 264.582 123.82C264.582 124.816 263.773 125.625 262.777 125.625Z" fill="white"/>
<path d="M513.91 336.883C514.364 336.883 514.732 336.515 514.732 336.061C514.732 335.607 514.364 335.239 513.91 335.239C513.456 335.239 513.088 335.607 513.088 336.061C513.088 336.515 513.456 336.883 513.91 336.883Z" fill="white"/>
<path d="M513.91 342.564C514.364 342.564 514.732 342.196 514.732 341.742C514.732 341.288 514.364 340.92 513.91 340.92C513.456 340.92 513.088 341.288 513.088 341.742C513.088 342.196 513.456 342.564 513.91 342.564Z" fill="white"/>
<path d="M513.91 348.241C514.364 348.241 514.732 347.873 514.732 347.419C514.732 346.965 514.364 346.597 513.91 346.597C513.456 346.597 513.088 346.965 513.088 347.419C513.088 347.873 513.456 348.241 513.91 348.241Z" fill="white"/>
<path d="M507.844 336.883C508.297 336.883 508.666 336.515 508.666 336.061C508.666 335.607 508.297 335.239 507.844 335.239C507.39 335.239 507.021 335.607 507.021 336.061C507.021 336.515 507.39 336.883 507.844 336.883Z" fill="white"/>
<path d="M507.844 342.564C508.297 342.564 508.666 342.196 508.666 341.742C508.666 341.288 508.297 340.92 507.844 340.92C507.39 340.92 507.021 341.288 507.021 341.742C507.021 342.196 507.39 342.564 507.844 342.564Z" fill="white"/>
<path d="M507.844 348.241C508.297 348.241 508.666 347.873 508.666 347.419C508.666 346.965 508.297 346.597 507.844 346.597C507.39 346.597 507.021 346.965 507.021 347.419C507.021 347.873 507.39 348.241 507.844 348.241Z" fill="white"/>
<path d="M201.657 153.499C202.111 153.499 202.479 153.131 202.479 152.677C202.479 152.223 202.111 151.855 201.657 151.855C201.203 151.855 200.835 152.223 200.835 152.677C200.835 153.131 201.203 153.499 201.657 153.499Z" fill="white"/>
<path d="M201.657 159.179C202.111 159.179 202.479 158.811 202.479 158.357C202.479 157.903 202.111 157.535 201.657 157.535C201.203 157.535 200.835 157.903 200.835 158.357C200.835 158.811 201.203 159.179 201.657 159.179Z" fill="white"/>
<path d="M202.475 164.034C202.475 164.486 202.108 164.856 201.653 164.856C201.202 164.856 200.831 164.49 200.831 164.034C200.831 163.583 201.198 163.212 201.653 163.212C202.108 163.216 202.475 163.583 202.475 164.034Z" fill="white"/>
<path d="M195.59 153.499C196.044 153.499 196.412 153.131 196.412 152.677C196.412 152.223 196.044 151.855 195.59 151.855C195.136 151.855 194.768 152.223 194.768 152.677C194.768 153.131 195.136 153.499 195.59 153.499Z" fill="white"/>
<path d="M195.59 159.179C196.044 159.179 196.412 158.811 196.412 158.357C196.412 157.903 196.044 157.535 195.59 157.535C195.136 157.535 194.768 157.903 194.768 158.357C194.768 158.811 195.136 159.179 195.59 159.179Z" fill="white"/>
<path d="M196.409 164.034C196.409 164.486 196.042 164.856 195.587 164.856C195.135 164.856 194.765 164.49 194.765 164.034C194.765 163.583 195.131 163.212 195.587 163.212C196.042 163.216 196.409 163.583 196.409 164.034Z" fill="white"/>
<path d="M132.164 76.406C132.618 76.406 132.986 76.0379 132.986 75.5839C132.986 75.1299 132.618 74.7619 132.164 74.7619C131.71 74.7619 131.342 75.1299 131.342 75.5839C131.342 76.0379 131.71 76.406 132.164 76.406Z" fill="white"/>
<path d="M132.982 81.2647C132.982 81.7201 132.616 82.0868 132.16 82.0868C131.709 82.0868 131.338 81.7201 131.338 81.2647C131.338 80.8132 131.705 80.4427 132.16 80.4427C132.616 80.4427 132.982 80.8132 132.982 81.2647Z" fill="white"/>
<path d="M132.164 87.7676C132.618 87.7676 132.986 87.3996 132.986 86.9456C132.986 86.4916 132.618 86.1236 132.164 86.1236C131.71 86.1236 131.342 86.4916 131.342 86.9456C131.342 87.3996 131.71 87.7676 132.164 87.7676Z" fill="white"/>
<path d="M126.097 76.406C126.551 76.406 126.919 76.0379 126.919 75.5839C126.919 75.1299 126.551 74.7619 126.097 74.7619C125.643 74.7619 125.275 75.1299 125.275 75.5839C125.275 76.0379 125.643 76.406 126.097 76.406Z" fill="white"/>
<path d="M126.919 81.2647C126.919 81.7201 126.553 82.0868 126.097 82.0868C125.646 82.0868 125.275 81.7201 125.275 81.2647C125.275 80.8132 125.642 80.4427 126.097 80.4427C126.549 80.4427 126.919 80.8132 126.919 81.2647Z" fill="white"/>
<path d="M126.097 87.7676C126.551 87.7676 126.919 87.3996 126.919 86.9456C126.919 86.4916 126.551 86.1236 126.097 86.1236C125.643 86.1236 125.275 86.4916 125.275 86.9456C125.275 87.3996 125.643 87.7676 126.097 87.7676Z" fill="white"/>
<path d="M125.588 277.207C126.042 277.207 126.41 276.839 126.41 276.385C126.41 275.931 126.042 275.563 125.588 275.563C125.134 275.563 124.766 275.931 124.766 276.385C124.766 276.839 125.134 277.207 125.588 277.207Z" fill="white"/>
<path d="M125.588 282.884C126.042 282.884 126.41 282.516 126.41 282.062C126.41 281.608 126.042 281.24 125.588 281.24C125.134 281.24 124.766 281.608 124.766 282.062C124.766 282.516 125.134 282.884 125.588 282.884Z" fill="white"/>
<path d="M125.588 288.565C126.042 288.565 126.41 288.197 126.41 287.743C126.41 287.289 126.042 286.921 125.588 286.921C125.134 286.921 124.766 287.289 124.766 287.743C124.766 288.197 125.134 288.565 125.588 288.565Z" fill="white"/>
<path d="M119.521 277.207C119.975 277.207 120.343 276.839 120.343 276.385C120.343 275.931 119.975 275.563 119.521 275.563C119.067 275.563 118.699 275.931 118.699 276.385C118.699 276.839 119.067 277.207 119.521 277.207Z" fill="white"/>
<path d="M119.521 282.884C119.975 282.884 120.343 282.516 120.343 282.062C120.343 281.608 119.975 281.24 119.521 281.24C119.067 281.24 118.699 281.608 118.699 282.062C118.699 282.516 119.067 282.884 119.521 282.884Z" fill="white"/>
<path d="M119.521 288.565C119.975 288.565 120.343 288.197 120.343 287.743C120.343 287.289 119.975 286.921 119.521 286.921C119.067 286.921 118.699 287.289 118.699 287.743C118.699 288.197 119.067 288.565 119.521 288.565Z" fill="white"/>
<path d="M512.517 76.924C512.517 77.3755 512.15 77.746 511.695 77.746C511.243 77.746 510.873 77.3794 510.873 76.924C510.873 76.4686 511.239 76.102 511.695 76.102C512.15 76.102 512.517 76.4686 512.517 76.924Z" fill="white"/>
<path d="M512.517 82.601C512.517 83.0564 512.15 83.423 511.695 83.423C511.243 83.423 510.873 83.0564 510.873 82.601C510.873 82.1495 511.239 81.779 511.695 81.779C512.15 81.779 512.517 82.1495 512.517 82.601Z" fill="white"/>
<path d="M512.517 88.2818C512.517 88.7334 512.15 89.1039 511.695 89.1039C511.243 89.1039 510.873 88.7372 510.873 88.2818C510.873 87.8303 511.239 87.4598 511.695 87.4598C512.15 87.4598 512.517 87.8264 512.517 88.2818Z" fill="white"/>
<path d="M506.45 76.924C506.45 77.3755 506.084 77.746 505.628 77.746C505.173 77.746 504.806 77.3794 504.806 76.924C504.806 76.4686 505.173 76.102 505.628 76.102C506.084 76.102 506.45 76.4686 506.45 76.924Z" fill="white"/>
<path d="M506.45 82.601C506.45 83.0564 506.084 83.423 505.628 83.423C505.173 83.423 504.806 83.0564 504.806 82.601C504.806 82.1495 505.173 81.779 505.628 81.779C506.084 81.779 506.45 82.1495 506.45 82.601Z" fill="white"/>
<path d="M506.45 88.2818C506.45 88.7334 506.084 89.1039 505.628 89.1039C505.173 89.1039 504.806 88.7372 504.806 88.2818C504.806 87.8303 505.173 87.4598 505.628 87.4598C506.084 87.4598 506.45 87.8264 506.45 88.2818Z" fill="white"/>
<g opacity="0.8">
<path d="M670.894 19.3979C672.017 12.4823 667.32 5.96631 660.405 4.84396C653.489 3.7216 646.973 8.41793 645.851 15.3335C644.728 22.2491 649.425 28.7651 656.34 29.8875C663.256 31.0098 669.772 26.3135 670.894 19.3979Z" stroke="white" stroke-width="1.29" stroke-miterlimit="10"/>
<path opacity="0.9474" d="M677.053 20.4714C678.757 10.1548 671.776 0.409807 661.459 -1.29464C651.143 -2.99908 641.398 3.98244 639.693 14.299C637.989 24.6156 644.97 34.3606 655.287 36.065C665.603 37.7695 675.348 30.7879 677.053 20.4714Z" stroke="white" stroke-width="1.29" stroke-miterlimit="10"/>
<path opacity="0.8947" d="M683.186 21.5509C685.494 7.83886 676.25 -5.14818 662.537 -7.45646C648.825 -9.76474 635.838 -0.520176 633.53 13.1919C631.222 26.9039 640.466 39.8909 654.178 42.1992C667.89 44.5075 680.878 35.2629 683.186 21.5509Z" stroke="white" stroke-width="1.29" stroke-miterlimit="10"/>
<path opacity="0.8421" d="M689.326 22.7022C692.266 5.59781 680.784 -10.6515 663.679 -13.5916C646.575 -16.5317 630.325 -5.04931 627.385 12.0551C624.445 29.1595 635.928 45.4088 653.032 48.349C670.136 51.2891 686.386 39.8066 689.326 22.7022Z" stroke="white" stroke-width="1.29" stroke-miterlimit="10"/>
<path opacity="0.7895" d="M684.998 44.0031C699.709 29.2921 699.709 5.44083 684.998 -9.27017C670.287 -23.9812 646.436 -23.9812 631.725 -9.27018C617.014 5.44083 617.014 29.2921 631.725 44.0031C646.436 58.7141 670.287 58.7141 684.998 44.0031Z" stroke="white" stroke-width="1.29" stroke-miterlimit="10"/>
<path opacity="0.7368" d="M689.417 48.4212C706.568 31.2701 706.568 3.4628 689.417 -13.6882C672.265 -30.8393 644.458 -30.8393 627.307 -13.6882C610.156 3.4628 610.156 31.2701 627.307 48.4212C644.458 65.5722 672.265 65.5722 689.417 48.4212Z" stroke="white" stroke-width="1.29" stroke-miterlimit="10"/>
<path opacity="0.6842" d="M693.831 52.8365C713.421 33.2469 713.421 1.48599 693.831 -18.1036C674.242 -37.6931 642.481 -37.6931 622.891 -18.1036C603.302 1.48599 603.302 33.2469 622.891 52.8365C642.481 72.426 674.242 72.426 693.831 52.8365Z" stroke="white" stroke-width="1.29" stroke-miterlimit="10"/>
<path opacity="0.6316" d="M698.249 57.2545C720.279 35.225 720.279 -0.492038 698.249 -22.5216C676.22 -44.5512 640.503 -44.5512 618.473 -22.5216C596.444 -0.492047 596.444 35.225 618.473 57.2546C640.503 79.2841 676.22 79.2841 698.249 57.2545Z" stroke="white" stroke-width="1.29" stroke-miterlimit="10"/>
<path opacity="0.5789" d="M702.665 61.6699C727.134 37.2018 727.134 -2.46886 702.665 -26.937C678.197 -51.4051 638.527 -51.4051 614.059 -26.937C589.59 -2.46886 589.59 37.2018 614.059 61.6699C638.527 86.138 678.197 86.138 702.665 61.6699Z" stroke="white" stroke-width="1.29" stroke-miterlimit="10"/>
<path opacity="0.5263" d="M707.083 66.088C733.991 39.1798 733.991 -4.44688 707.083 -31.355C680.175 -58.2632 636.548 -58.2632 609.64 -31.355C582.732 -4.44689 582.732 39.1798 609.64 66.088C636.548 92.9961 680.175 92.9961 707.083 66.088Z" stroke="white" stroke-width="1.29" stroke-miterlimit="10"/>
<path opacity="0.4737" d="M658.365 92.513C699.867 92.513 733.512 58.8683 733.512 17.3654C733.512 -24.1374 699.867 -57.7821 658.365 -57.7821C616.862 -57.7821 583.217 -24.1374 583.217 17.3654C583.217 58.8683 616.862 92.513 658.365 92.513Z" stroke="white" stroke-width="1.29" stroke-miterlimit="10"/>
<path opacity="0.4211" d="M658.365 98.7611C703.319 98.7611 739.761 62.319 739.761 17.3654C739.761 -27.5882 703.319 -64.0303 658.365 -64.0303C613.411 -64.0303 576.969 -27.5882 576.969 17.3654C576.969 62.319 613.411 98.7611 658.365 98.7611Z" stroke="white" stroke-width="1.29" stroke-miterlimit="10"/>
<path opacity="0.3684" d="M658.365 105.005C706.767 105.005 746.005 65.7677 746.005 17.3654C746.005 -31.0368 706.767 -70.2745 658.365 -70.2745C609.963 -70.2745 570.725 -31.0368 570.725 17.3654C570.725 65.7677 609.963 105.005 658.365 105.005Z" stroke="white" stroke-width="1.29" stroke-miterlimit="10"/>
<path opacity="0.3158" d="M658.364 111.254C710.217 111.254 752.253 69.2184 752.253 17.3654C752.253 -34.4876 710.217 -76.5227 658.364 -76.5227C606.511 -76.5227 564.476 -34.4876 564.476 17.3654C564.476 69.2184 606.511 111.254 658.364 111.254Z" stroke="white" stroke-width="1.29" stroke-miterlimit="10"/>
<path opacity="0.2632" d="M658.365 117.498C713.666 117.498 758.497 72.667 758.497 17.3654C758.497 -37.9362 713.666 -82.767 658.365 -82.767C603.063 -82.767 558.232 -37.9362 558.232 17.3654C558.232 72.667 603.063 117.498 658.365 117.498Z" stroke="white" stroke-width="1.29" stroke-miterlimit="10"/>
<path opacity="0.2105" d="M658.365 123.746C717.117 123.746 764.745 76.1178 764.745 17.3654C764.745 -41.3869 717.117 -89.0151 658.365 -89.0151C599.613 -89.0151 551.984 -41.3869 551.984 17.3654C551.984 76.1178 599.613 123.746 658.365 123.746Z" stroke="white" stroke-width="1.29" stroke-miterlimit="10"/>
<path opacity="0.1579" d="M658.364 129.99C720.565 129.99 770.989 79.5664 770.989 17.3654C770.989 -44.8356 720.565 -95.2594 658.364 -95.2594C596.163 -95.2594 545.739 -44.8356 545.739 17.3654C545.739 79.5664 596.163 129.99 658.364 129.99Z" stroke="white" stroke-width="1.29" stroke-miterlimit="10"/>
<path opacity="0.1053" d="M658.364 136.238C724.016 136.238 777.237 83.0172 777.237 17.3654C777.237 -48.2863 724.016 -101.508 658.364 -101.508C592.713 -101.508 539.491 -48.2863 539.491 17.3654C539.491 83.0172 592.713 136.238 658.364 136.238Z" stroke="white" stroke-width="1.29" stroke-miterlimit="10"/>
<path opacity="0.0526" d="M658.365 142.483C727.465 142.483 783.482 86.4658 783.482 17.3654C783.482 -51.7349 727.465 -107.752 658.365 -107.752C589.264 -107.752 533.247 -51.7349 533.247 17.3654C533.247 86.4658 589.264 142.483 658.365 142.483Z" stroke="white" stroke-width="1.29" stroke-miterlimit="10"/>
</g>
</g>
<rect x="12.5" y="10.5" width="649" height="399" rx="11.5" stroke="#36A8FF"/>
</g>
<defs>
<filter id="filter0_d_49_5424" x="0" y="0" width="674" height="424" filterUnits="userSpaceOnUse" color-interpolation-filters="sRGB">
<feFlood flood-opacity="0" result="BackgroundImageFix"/>
<feColorMatrix in="SourceAlpha" type="matrix" values="0 0 0 0 0 0 0 0 0 0 0 0 0 0 0 0 0 0 127 0" result="hardAlpha"/>
<feOffset dy="2"/>
<feGaussianBlur stdDeviation="6"/>
<feComposite in2="hardAlpha" operator="out"/>
<feColorMatrix type="matrix" values="0 0 0 0 0 0 0 0 0 0 0 0 0 0 0 0 0 0 0.2 0"/>
<feBlend mode="normal" in2="BackgroundImageFix" result="effect1_dropShadow_49_5424"/>
<feBlend mode="normal" in="SourceGraphic" in2="effect1_dropShadow_49_5424" result="shape"/>
</filter>
<linearGradient id="paint0_linear_49_5424" x1="662" y1="210" x2="12" y2="210" gradientUnits="userSpaceOnUse">
<stop stop-color="#0069D6"/>
<stop offset="1" stop-color="#00A5FC"/>
</linearGradient>
<linearGradient id="paint1_linear_49_5424" x1="224.821" y1="216.125" x2="454.041" y2="216.125" gradientUnits="userSpaceOnUse">
<stop stop-color="#EBF7FF"/>
<stop offset="1" stop-color="#CAE0FF"/>
</linearGradient>
<linearGradient id="paint2_linear_49_5424" x1="231.507" y1="216.125" x2="447.356" y2="216.125" gradientUnits="userSpaceOnUse">
<stop stop-color="#00E1FD"/>
<stop offset="1" stop-color="#00A1FD"/>
</linearGradient>
<linearGradient id="paint3_linear_49_5424" x1="214.316" y1="292.532" x2="464.547" y2="292.532" gradientUnits="userSpaceOnUse">
<stop stop-color="#EBF7FF"/>
<stop offset="1" stop-color="#CAE0FF"/>
</linearGradient>
<linearGradient id="paint4_linear_49_5424" x1="214.316" y1="298.931" x2="464.547" y2="298.931" gradientUnits="userSpaceOnUse">
<stop stop-color="#C7EBFF"/>
<stop offset="1" stop-color="#A6CEFF"/>
</linearGradient>
<linearGradient id="paint5_linear_49_5424" x1="317.084" y1="245.713" x2="361.78" y2="245.713" gradientUnits="userSpaceOnUse">
<stop stop-color="#EBF7FF"/>
<stop offset="1" stop-color="#CAE0FF"/>
</linearGradient>
<linearGradient id="paint6_linear_49_5424" x1="318.994" y1="245.713" x2="359.871" y2="245.713" gradientUnits="userSpaceOnUse">
<stop stop-color="#00A5FC"/>
<stop offset="1" stop-color="#006AD6"/>
</linearGradient>
<linearGradient id="paint7_linear_49_5424" x1="287.213" y1="160.826" x2="391.652" y2="160.826" gradientUnits="userSpaceOnUse">
<stop stop-color="#EBF7FF"/>
<stop offset="1" stop-color="#CAE0FF"/>
</linearGradient>
<linearGradient id="paint8_linear_49_5424" x1="290.15" y1="160.826" x2="388.715" y2="160.826" gradientUnits="userSpaceOnUse">
<stop stop-color="#00E1FD"/>
<stop offset="1" stop-color="#00A0FD"/>
</linearGradient>
<linearGradient id="paint9_linear_49_5424" x1="293.999" y1="160.826" x2="384.865" y2="160.826" gradientUnits="userSpaceOnUse">
<stop stop-color="#00A5FC"/>
<stop offset="1" stop-color="#006AD6"/>
</linearGradient>
<linearGradient id="paint10_linear_49_5424" x1="316.988" y1="160.826" x2="361.877" y2="160.826" gradientUnits="userSpaceOnUse">
<stop stop-color="#EBF7FF"/>
<stop offset="1" stop-color="#CAE0FF"/>
</linearGradient>
<linearGradient id="paint11_linear_49_5424" x1="380.362" y1="131.435" x2="431.114" y2="131.435" gradientUnits="userSpaceOnUse">
<stop stop-color="#EBF7FF" stop-opacity="0.1"/>
<stop offset="1" stop-color="white" stop-opacity="0.4"/>
</linearGradient>
<linearGradient id="paint12_linear_49_5424" x1="330.154" y1="85.2836" x2="356.16" y2="85.2836" gradientUnits="userSpaceOnUse">
<stop stop-color="#EBF7FF" stop-opacity="0.1"/>
<stop offset="1" stop-color="white" stop-opacity="0.4"/>
</linearGradient>
<linearGradient id="paint13_linear_49_5424" x1="214.22" y1="323.929" x2="336.853" y2="323.929" gradientUnits="userSpaceOnUse">
<stop stop-color="#EBF7FF" stop-opacity="0.1"/>
<stop offset="1" stop-color="white" stop-opacity="0.4"/>
</linearGradient>
<linearGradient id="paint14_linear_49_5424" x1="225.967" y1="307.679" x2="248.314" y2="307.679" gradientUnits="userSpaceOnUse">
<stop stop-color="#EBF7FF"/>
<stop offset="1" stop-color="#CAE0FF"/>
</linearGradient>
<linearGradient id="paint15_linear_49_5424" x1="226.92" y1="307.68" x2="247.358" y2="307.68" gradientUnits="userSpaceOnUse">
<stop stop-color="#00A5FC"/>
<stop offset="1" stop-color="#006AD6"/>
</linearGradient>
<linearGradient id="paint16_linear_49_5424" x1="133.483" y1="227.204" x2="256.116" y2="227.204" gradientUnits="userSpaceOnUse">
<stop stop-color="#EBF7FF" stop-opacity="0.1"/>
<stop offset="1" stop-color="white" stop-opacity="0.4"/>
</linearGradient>
<linearGradient id="paint17_linear_49_5424" x1="145.23" y1="220.682" x2="167.578" y2="220.682" gradientUnits="userSpaceOnUse">
<stop stop-color="#EBF7FF"/>
<stop offset="1" stop-color="#CAE0FF"/>
</linearGradient>
<linearGradient id="paint18_linear_49_5424" x1="146.183" y1="220.681" x2="166.621" y2="220.681" gradientUnits="userSpaceOnUse">
<stop stop-color="#00A5FC"/>
<stop offset="1" stop-color="#006AD6"/>
</linearGradient>
<linearGradient id="paint19_linear_49_5424" x1="405.127" y1="216.125" x2="527.76" y2="216.125" gradientUnits="userSpaceOnUse">
<stop stop-color="#EBF7FF" stop-opacity="0.1"/>
<stop offset="1" stop-color="white" stop-opacity="0.4"/>
</linearGradient>
<linearGradient id="paint20_linear_49_5424" x1="416.873" y1="199.875" x2="439.221" y2="199.875" gradientUnits="userSpaceOnUse">
<stop stop-color="#EBF7FF"/>
<stop offset="1" stop-color="#CAE0FF"/>
</linearGradient>
<linearGradient id="paint21_linear_49_5424" x1="417.825" y1="199.876" x2="438.264" y2="199.876" gradientUnits="userSpaceOnUse">
<stop stop-color="#00A5FC"/>
<stop offset="1" stop-color="#006AD6"/>
</linearGradient>
<linearGradient id="paint22_linear_49_5424" x1="263.594" y1="91.1763" x2="310.831" y2="91.1763" gradientUnits="userSpaceOnUse">
<stop stop-color="#EBF7FF" stop-opacity="0.1"/>
<stop offset="1" stop-color="white" stop-opacity="0.4"/>
</linearGradient>
<linearGradient id="paint23_linear_49_5424" x1="408.737" y1="78.0708" x2="477.121" y2="78.0708" gradientUnits="userSpaceOnUse">
<stop stop-color="#EBF7FF" stop-opacity="0.1"/>
<stop offset="1" stop-color="white" stop-opacity="0.4"/>
</linearGradient>
<linearGradient id="paint24_linear_49_5424" x1="260.022" y1="164.909" x2="304.975" y2="164.909" gradientUnits="userSpaceOnUse">
<stop stop-color="#EBF7FF" stop-opacity="0.1"/>
<stop offset="1" stop-color="white" stop-opacity="0.4"/>
</linearGradient>
<linearGradient id="paint25_linear_49_5424" x1="413.896" y1="322.322" x2="489.877" y2="322.322" gradientUnits="userSpaceOnUse">
<stop stop-color="#EBF7FF" stop-opacity="0.1"/>
<stop offset="1" stop-color="white" stop-opacity="0.4"/>
</linearGradient>
<clipPath id="clip0_49_5424">
<rect x="12" y="10" width="650" height="400" rx="12" fill="white"/>
</clipPath>
</defs>
</svg>
