<svg width="16" height="20" viewBox="0 0 16 20" fill="none" xmlns="http://www.w3.org/2000/svg">
<path d="M8.75 11.744H14.75M12.5 13.994L14.75 11.744L12.5 9.49396M8.75 0.75H3.95C2.8299 0.75 2.26984 0.75 1.84202 0.967987C1.46569 1.15973 1.15973 1.46569 0.967987 1.84202C0.75 2.26984 0.75 2.8299 0.75 3.95V15.55C0.75 16.6701 0.75 17.2302 0.967987 17.658C1.15973 18.0343 1.46569 18.3403 1.84202 18.532C2.26984 18.75 2.8299 18.75 3.95 18.75H9.5M8.75 0.75L14.75 6.75H10.35C9.78995 6.75 9.50992 6.75 9.29601 6.64101C9.10785 6.54513 8.95487 6.39215 8.85899 6.20399C8.75 5.99008 8.75 5.71005 8.75 5.15V0.75ZM9.74857 13.7643H3.74857M5.99857 11.5143L3.74857 13.7643L5.99857 16.0143" stroke="white" stroke-width="1.5" stroke-linecap="round" stroke-linejoin="round"/>
</svg>
